<?xml version="1.0" standalone="no"?>
<!DOCTYPE svg PUBLIC "-//W3C//DTD SVG 20010904//EN"
 "http://www.w3.org/TR/2001/REC-SVG-20010904/DTD/svg10.dtd">
<svg version="1.0" xmlns="http://www.w3.org/2000/svg"
 width="500.000000pt" height="500.000000pt" viewBox="0 0 500.000000 500.000000"
 preserveAspectRatio="xMidYMid meet">
<metadata>
Created by potrace 1.11, written by Peter Selinger 2001-2013
</metadata>
<g transform="translate(0.000000,500.000000) scale(0.100000,-0.100000)"
fill="#000000" stroke="none">
<path d="M1540 4957 c-155 -88 -369 -245 -490 -360 -36 -34 -89 -82 -119 -107
-75 -63 -187 -208 -172 -223 27 -27 -4 -82 -33 -58 -11 10 -21 1 -51 -49 -61
-101 -102 -261 -112 -434 l-6 -120 26 25 c14 13 30 40 35 59 l8 35 18 -52 c15
-46 21 -53 44 -53 15 0 34 -5 42 -10 13 -8 12 -10 -3 -10 -36 0 -78 -30 -84
-60 -3 -16 -12 -35 -19 -41 -11 -9 -14 -6 -14 17 0 50 -11 74 -32 74 -18 0
-20 -4 -13 -47 11 -78 37 -175 61 -228 12 -27 50 -121 84 -208 70 -177 70
-176 25 -332 -44 -152 -93 -252 -155 -319 -62 -67 -210 -247 -210 -256 0 -12
64 -40 91 -40 37 0 38 -16 2 -23 -60 -12 -106 -26 -117 -37 -6 -6 -13 -47 -15
-90 -4 -110 -20 -108 -35 4 -10 74 -21 63 -98 -89 -67 -133 -98 -224 -104
-315 -7 -83 12 -183 46 -250 24 -46 45 -64 30 -25 -18 48 -10 40 30 -29 l40
-69 -53 -51 c-39 -37 -73 -86 -121 -173 l-66 -122 0 -108 1 -108 40 104 c59
157 103 242 145 281 37 34 37 34 17 5 -55 -83 -41 -73 42 30 37 47 69 85 70
85 1 0 18 -15 38 -32 19 -18 51 -65 70 -104 20 -40 58 -101 85 -136 l49 -65
-42 -164 c-57 -221 -117 -388 -197 -546 l-66 -133 771 0 771 0 -45 48 c-111
114 -222 274 -268 382 -18 41 -50 107 -72 147 -21 40 -39 74 -39 77 0 3 16 -4
36 -16 23 -13 51 -21 73 -20 20 1 61 -4 91 -12 l55 -14 54 33 c54 32 55 33 90
17 53 -24 65 -37 84 -89 17 -46 78 -106 85 -84 2 6 -12 47 -30 93 -31 76 -37
85 -78 106 -48 24 -50 31 -19 70 14 18 19 40 19 82 l0 57 55 -14 c30 -7 79
-19 108 -27 29 -7 83 -16 120 -20 l67 -8 0 -56 c0 -93 18 -172 55 -247 19 -39
35 -76 35 -82 0 -24 86 -138 132 -174 43 -34 57 -39 101 -39 29 0 89 -3 135
-7 l83 -6 -68 -43 c-37 -23 -106 -68 -153 -98 l-85 -56 785 0 786 0 39 82 c55
112 65 123 159 168 137 65 354 243 427 352 37 54 42 58 89 64 28 4 50 10 50
14 0 5 18 11 39 15 36 6 46 2 123 -49 l83 -56 3 36 c2 26 -2 40 -15 49 -24 19
-231 143 -245 147 -7 3 3 31 25 73 19 39 41 91 47 117 7 26 21 55 32 65 11 10
30 36 41 58 31 59 30 281 -1 410 -39 164 -129 385 -156 385 -24 -1 -151 -76
-168 -100 -14 -19 -20 -57 -27 -168 -5 -79 -11 -146 -14 -148 -6 -6 -35 113
-43 176 -7 63 -22 96 -56 126 -48 43 -94 50 -168 26 -23 -8 -52 -9 -85 -3 -27
5 -43 9 -34 10 10 0 49 15 87 31 39 17 78 30 86 30 23 0 106 60 117 84 16 39
37 178 33 217 -8 68 12 42 33 -44 33 -133 58 -183 101 -200 36 -14 122 -12
122 2 0 4 -36 61 -81 125 -44 65 -78 120 -75 124 4 3 -5 18 -19 32 -29 30 -36
41 -132 220 -87 162 -121 251 -131 345 -10 91 -10 84 18 215 51 233 18 777
-61 1025 -43 133 -129 298 -207 396 -128 163 -381 413 -514 508 l-56 41 -919
0 -918 0 -75 -43z m1238 16 c-4 -22 -38 -30 -38 -10 0 14 13 24 33 26 5 1 7
-7 5 -16z m-318 -17 c0 -3 -4 -8 -10 -11 -5 -3 -10 -1 -10 4 0 6 5 11 10 11 6
0 10 -2 10 -4z m-130 -96 c0 -5 -5 -10 -11 -10 -5 0 -7 5 -4 10 3 6 8 10 11
10 2 0 4 -4 4 -10z m1190 -20 c0 -5 -4 -10 -10 -10 -5 0 -10 5 -10 10 0 6 5
10 10 10 6 0 10 -4 10 -10z m-1000 -38 c0 -13 -12 -22 -22 -16 -10 6 -1 24 13
24 5 0 9 -4 9 -8z m-1140 -37 c0 -8 -7 -15 -15 -15 -16 0 -20 12 -8 23 11 12
23 8 23 -8z m-60 -105 c0 -5 -4 -10 -10 -10 -5 0 -10 5 -10 10 0 6 5 10 10 10
6 0 10 -4 10 -10z m470 -10 c0 -5 -4 -10 -10 -10 -5 0 -10 5 -10 10 0 6 5 10
10 10 6 0 10 -4 10 -10z m2063 -95 c4 -8 2 -17 -4 -21 -12 -7 -41 15 -33 27 8
14 31 11 37 -6z m-2653 -5 c0 -5 -2 -10 -4 -10 -3 0 -8 5 -11 10 -3 6 -1 10 4
10 6 0 11 -4 11 -10z m140 -180 c4 -8 17 -16 29 -18 27 -4 27 -23 1 -40 -11
-7 -29 -27 -40 -45 l-20 -32 0 31 c0 39 -21 58 -56 50 -17 -5 -23 -3 -19 4 3
5 12 10 20 10 22 0 45 30 45 59 0 37 13 48 23 19 5 -13 12 -30 17 -38z m1380
-100 c0 -5 -4 -10 -10 -10 -5 0 -10 5 -10 10 0 6 5 10 10 10 6 0 10 -4 10 -10z
m290 6 c0 -3 -4 -8 -10 -11 -5 -3 -10 -1 -10 4 0 6 5 11 10 11 6 0 10 -2 10
-4z m-1400 -87 c0 -5 -4 -9 -10 -9 -5 0 -10 7 -10 16 0 8 5 12 10 9 6 -3 10
-10 10 -16z m1450 -53 c0 -3 -4 -8 -10 -11 -5 -3 -10 -1 -10 4 0 6 5 11 10 11
6 0 10 -2 10 -4z m-2110 -34 c0 -13 -12 -22 -22 -16 -10 6 -1 24 13 24 5 0 9
-4 9 -8z m1123 -190 c45 -43 98 -85 117 -95 19 -10 85 -60 145 -113 94 -81
132 -105 260 -170 82 -41 156 -72 163 -69 22 8 76 -30 137 -97 85 -94 78 -96
-90 -23 -122 53 -175 68 -218 60 -22 -4 -50 1 -87 15 -51 21 -66 22 -197 16
-139 -5 -201 -19 -218 -46 -4 -7 -10 -48 -12 -93 -4 -69 -2 -79 11 -74 10 4
16 1 16 -7 0 -8 3 -21 6 -30 5 -13 -6 -15 -83 -13 l-88 2 -15 -47 c-13 -38
-19 -45 -33 -37 -9 5 -42 14 -74 20 -96 17 -93 15 -93 68 0 51 -22 82 -67 96
-19 5 -21 10 -13 25 14 26 12 60 -5 94 -12 23 -12 26 -1 17 20 -17 30 14 10
34 -21 21 -59 41 -50 26 11 -17 -10 -13 -25 6 -22 26 -87 50 -169 63 -82 12
-130 28 -130 41 0 14 157 135 250 193 121 75 259 144 364 182 50 18 94 33 99
33 4 1 44 -34 90 -77z m2067 -19 c14 -7 19 -13 11 -13 -25 0 -51 -32 -51 -64
0 -23 -3 -27 -9 -16 -6 8 -7 18 -5 22 3 5 2 18 -1 29 -6 18 -13 20 -41 16 -18
-3 -36 -1 -39 4 -4 5 4 9 18 9 32 0 67 35 68 68 0 25 1 25 12 -8 7 -19 23 -40
37 -47z m-1700 57 c0 -5 -7 -10 -16 -10 -8 0 -12 5 -9 10 3 6 10 10 16 10 5 0
9 -4 9 -10z m1276 -92 c-10 -6 -20 -7 -24 -3 -9 8 20 25 31 18 5 -3 2 -10 -7
-15z m-2611 2 c3 -5 1 -10 -4 -10 -6 0 -11 5 -11 10 0 6 2 10 4 10 3 0 8 -4
11 -10z m-305 -150 c0 -5 -4 -10 -10 -10 -5 0 -10 5 -10 10 0 6 5 10 10 10 6
0 10 -4 10 -10z m1880 -186 c0 -9 -37 15 -51 33 -10 12 -5 11 19 -6 17 -12 32
-24 32 -27z m803 -45 c4 -16 1 -20 -16 -17 -12 2 -23 11 -25 21 -5 25 34 22
41 -4z m467 -10 c0 -5 -4 -9 -10 -9 -5 0 -10 7 -10 16 0 8 5 12 10 9 6 -3 10
-10 10 -16z m-2320 -24 c7 -8 8 -15 2 -15 -5 0 -15 7 -22 15 -7 8 -8 15 -2 15
5 0 15 -7 22 -15z m-311 -39 c44 -28 74 -56 67 -63 -3 -3 -24 9 -48 28 l-43
33 30 -33 c23 -25 26 -31 10 -25 -28 11 -51 35 -59 62 -9 28 -5 28 43 -2z
m105 -65 c-2 -3 -12 3 -22 13 -16 17 -16 18 5 5 12 -7 20 -15 17 -18z m-474
-81 c0 -5 -4 -10 -10 -10 -5 0 -10 5 -10 10 0 6 5 10 10 10 6 0 10 -4 10 -10z
m1956 -26 c-5 -14 -9 -14 -22 -3 -14 12 -14 14 2 26 21 15 30 3 20 -23z
m-1366 0 c8 -1 33 -9 55 -18 22 -8 47 -15 55 -16 9 0 16 -10 16 -25 2 -26 -5
-31 -21 -16 -6 5 -27 14 -47 21 -21 6 -45 21 -53 33 -9 12 -19 21 -23 20 -13
-5 -42 8 -42 18 0 6 10 4 23 -3 12 -6 29 -13 37 -14z m1171 17 c-7 -5 -10 -14
-7 -20 12 -18 -39 -17 -83 2 -26 11 -25 11 14 17 63 11 92 11 76 1z m160 -23
c16 -31 6 -30 -32 1 l-34 29 28 -5 c15 -3 32 -14 38 -25z m-295 4 c5 -5 42
-19 83 -32 70 -22 72 -24 50 -37 -22 -12 -21 -13 26 -11 43 2 60 -4 122 -40
40 -23 75 -46 78 -51 3 -5 -17 -17 -44 -26 -44 -14 -53 -15 -73 -2 -66 42
-345 102 -532 114 l-98 6 58 19 c49 15 272 64 310 67 5 1 14 -3 20 -7z m-916
-118 c0 -14 -4 -22 -10 -19 -5 3 -10 12 -10 20 0 8 -10 24 -22 36 l-23 21 33
-16 c23 -12 32 -23 32 -42z m-294 -6 c3 -10 17 -32 31 -48 20 -24 33 -30 66
-31 35 -1 38 -2 17 -8 -31 -9 -92 4 -128 26 -35 22 -82 65 -82 75 0 4 20 7 45
6 34 -1 46 -6 51 -20z m688 -63 c-14 -19 -30 -35 -35 -35 -5 0 -9 -7 -9 -15 0
-8 -4 -15 -10 -15 -11 0 -14 83 -3 93 3 4 24 7 45 7 l39 0 -27 -35z m-474 16
c0 -5 -8 -11 -17 -15 -10 -3 -25 -9 -33 -12 -8 -4 -4 3 10 14 27 23 40 27 40
13z m270 -61 c22 -11 43 -28 48 -38 5 -9 15 -88 22 -174 l13 -157 43 -31 c24
-17 44 -35 44 -41 0 -5 10 -9 21 -9 21 0 21 1 4 26 -15 23 -15 28 -1 49 l16
24 43 -19 c23 -10 64 -24 91 -30 32 -7 56 -20 73 -40 14 -17 30 -30 36 -30 6
0 0 11 -13 25 -26 28 -24 28 40 14 123 -27 256 -46 264 -39 5 5 14 6 22 3 7
-3 28 0 47 6 38 13 79 64 124 156 28 57 75 153 92 185 4 8 31 27 61 43 63 32
65 30 75 -55 6 -52 13 -66 56 -115 27 -31 47 -58 44 -61 -3 -3 0 -12 7 -19 9
-11 9 -16 0 -22 -7 -4 -10 -15 -6 -25 4 -10 3 -21 -2 -25 -21 -15 -44 -85 -44
-134 0 -60 -21 -95 -149 -257 -123 -155 -472 -510 -501 -510 -8 0 -30 9 -47
20 -41 25 -42 16 -2 -21 17 -16 25 -29 18 -29 -7 0 -34 -20 -59 -45 -62 -61
-159 -95 -269 -95 -70 0 -88 4 -165 39 -48 21 -92 43 -98 49 -18 18 -14 94 7
137 14 26 34 46 64 62 58 30 71 42 71 64 0 11 6 19 13 19 8 0 7 4 -3 10 -12 8
-10 10 11 10 34 0 192 62 251 99 27 17 50 26 53 20 10 -15 25 0 25 23 0 21
-36 68 -52 68 -4 0 -8 -8 -8 -18 0 -10 -12 -25 -27 -33 -29 -16 -121 -15 -137
1 -5 5 -20 10 -33 10 -12 0 -47 9 -78 21 -39 15 -55 26 -55 39 0 10 -11 32
-25 48 -31 37 -32 70 -2 81 12 5 37 21 56 35 19 14 44 26 56 26 12 0 30 6 40
14 16 12 18 19 10 43 -7 17 -19 29 -32 31 -12 2 -27 9 -33 17 -6 8 -17 12 -24
9 -7 -3 -19 2 -26 11 -17 21 -33 19 -90 -10 -46 -23 -53 -24 -82 -11 -41 17
-108 91 -108 118 0 11 22 65 50 120 55 111 57 137 19 227 -20 46 -23 69 -13
95 9 24 104 21 154 -4z m483 -97 c-13 -2 -33 -2 -45 0 -13 2 -3 4 22 4 25 0
35 -2 23 -4z m-626 -35 c-3 -8 -6 -5 -6 6 -1 11 2 17 5 13 3 -3 4 -12 1 -19z
m666 -5 c24 -41 73 -84 105 -93 54 -15 58 -13 101 25 26 24 45 33 57 29 18 -5
18 -5 0 10 -11 9 -15 16 -9 16 5 0 18 -9 28 -20 10 -11 23 -17 29 -13 6 4 5
-1 -3 -11 -31 -37 -87 -56 -178 -58 -81 -3 -94 0 -163 30 -81 36 -126 74 -96
80 14 3 15 6 5 19 -11 13 -5 14 52 7 38 -4 67 -12 72 -21z m-739 -72 c-6 -39
-21 -86 -32 -105 -25 -42 -15 -49 10 -8 16 25 17 25 18 5 0 -12 -22 -55 -50
-96 -55 -82 -67 -140 -31 -150 36 -9 35 -53 -3 -116 -20 -32 -45 -78 -55 -102
l-20 -44 -15 37 c-9 21 -16 41 -16 46 0 6 -17 22 -37 38 -59 44 -79 72 -119
164 -34 79 -36 89 -30 155 8 94 21 136 55 179 17 21 31 42 33 48 3 8 38 8 127
-1 103 -9 127 -9 149 3 15 8 27 14 28 15 0 1 -5 -30 -12 -68z m-617 -88 c40
-44 42 -77 7 -114 -26 -27 -54 -111 -54 -163 0 -54 -11 -19 -16 49 -7 120 -47
163 -136 151 l-43 -6 50 20 c28 11 66 36 85 55 28 29 34 44 39 92 l5 58 14
-53 c9 -31 29 -68 49 -89z m1743 123 c0 -13 -47 -108 -71 -142 -33 -48 -105
-84 -168 -84 -59 0 -243 38 -348 71 -73 24 -98 37 -123 65 -17 20 -30 43 -28
52 5 24 68 20 105 -6 34 -24 120 -60 156 -64 14 -2 33 -10 43 -18 16 -13 17
-13 9 0 -4 8 -15 24 -24 34 -18 22 -18 22 94 -10 52 -14 69 -15 125 -4 98 19
167 48 192 80 20 25 38 38 38 26z m865 -246 c-3 -5 -10 -10 -16 -10 -5 0 -9 5
-9 10 0 6 7 10 16 10 8 0 12 -4 9 -10z m-1658 -146 c-3 -3 -12 -4 -19 -1 -8 3
-5 6 6 6 11 1 17 -2 13 -5z m1999 -23 c-10 -16 -36 -13 -36 3 0 17 21 27 34
16 4 -5 5 -13 2 -19z m-2831 -81 c3 -5 1 -10 -4 -10 -6 0 -11 5 -11 10 0 6 2
10 4 10 3 0 8 -4 11 -10z m-600 -20 c3 -5 1 -10 -4 -10 -6 0 -11 5 -11 10 0 6
2 10 4 10 3 0 8 -4 11 -10z m375 -235 c15 -18 5 -35 -20 -35 -10 0 -22 5 -25
10 -7 11 12 40 25 40 4 0 13 -7 20 -15z m2450 5 c0 -5 -5 -10 -11 -10 -5 0 -7
5 -4 10 3 6 8 10 11 10 2 0 4 -4 4 -10z m40 -34 c0 -3 -4 -8 -10 -11 -5 -3
-10 -1 -10 4 0 6 5 11 10 11 6 0 10 -2 10 -4z m-3170 -246 c0 -5 -2 -10 -4
-10 -3 0 -8 5 -11 10 -3 6 -1 10 4 10 6 0 11 -4 11 -10z m1170 -190 c0 -5 -4
-10 -10 -10 -5 0 -10 5 -10 10 0 6 5 10 10 10 6 0 10 -4 10 -10z m-1080 -122
c2 -68 4 -139 4 -158 1 -53 -12 -47 -29 13 -12 43 -13 70 -4 152 9 89 15 115
23 115 1 0 4 -55 6 -122z m2822 18 c17 -3 51 -6 77 -7 38 -1 42 -2 21 -9 -14
-4 -40 -8 -58 -9 -18 -1 -43 -8 -56 -16 -27 -18 -111 -31 -118 -19 -3 5 10 43
29 84 l35 75 20 -47 c16 -37 26 -47 50 -52z m-2652 62 c0 -7 -4 -19 -9 -27
-11 -17 -25 3 -17 24 7 18 26 20 26 3z m3498 -96 c29 -4 23 -25 -8 -32 -23 -5
-46 -53 -34 -72 3 -4 0 -8 -5 -8 -6 0 -11 10 -11 21 0 26 -26 48 -57 49 -27 0
-30 18 -5 27 31 11 52 36 52 61 0 24 1 24 23 -9 12 -19 33 -35 45 -37z m-896
-113 c-4 -90 -18 -95 -33 -13 -8 42 -7 50 13 71 12 13 22 23 22 23 1 0 0 -37
-2 -81z m-1872 2 c0 -6 -4 -13 -10 -16 -5 -3 -10 1 -10 9 0 9 5 16 10 16 6 0
10 -4 10 -9z m-862 -176 c-3 -3 -9 2 -12 12 -6 14 -5 15 5 6 7 -7 10 -15 7
-18z m1427 -278 c17 -24 20 -67 6 -67 -16 0 -68 49 -73 68 -8 29 47 28 67 -1z
m1995 -57 c0 -5 -4 -10 -10 -10 -5 0 -10 5 -10 10 0 6 5 10 10 10 6 0 10 -4
10 -10z m-2101 -176 c2 -2 -10 -4 -27 -4 -17 0 -34 4 -37 10 -5 9 53 3 64 -6z"/>
<path d="M2320 2549 c0 -5 3 -9 8 -10 4 0 16 -2 27 -5 43 -9 77 -12 71 -6 -4
3 -17 7 -29 9 -12 2 -29 6 -37 10 -26 11 -40 12 -40 2z"/>
<path d="M2415 2180 c3 -6 20 -17 37 -26 16 -8 28 -18 25 -20 -3 -3 -19 1 -35
10 -27 14 -31 14 -36 0 -3 -8 -1 -12 4 -9 10 6 80 -35 80 -48 0 -4 -14 0 -31
8 -17 9 -33 14 -37 11 -3 -3 0 -6 7 -6 7 0 10 -4 6 -9 -3 -5 0 -13 6 -17 8 -5
9 -3 4 6 -5 8 -3 11 4 9 7 -3 11 -7 9 -11 -2 -3 5 -15 16 -26 14 -16 21 -18
31 -9 9 8 10 16 3 25 -6 6 -6 12 -1 12 5 0 15 -6 23 -12 8 -7 4 -1 -9 14 -19
21 -21 30 -12 41 9 11 3 20 -27 41 -37 26 -79 36 -67 16z m75 -120 c0 -5 -2
-10 -4 -10 -3 0 -8 5 -11 10 -3 6 -1 10 4 10 6 0 11 -4 11 -10z"/>
<path d="M1382 2448 c-16 -16 -15 -33 2 -47 22 -18 44 25 24 45 -11 11 -16 12
-26 2z"/>
<path d="M1421 2324 c0 -11 3 -14 6 -6 3 7 2 16 -1 19 -3 4 -6 -2 -5 -13z"/>
</g>
</svg>
