<?xml version="1.0" standalone="no"?>
<!DOCTYPE svg PUBLIC "-//W3C//DTD SVG 20010904//EN"
 "http://www.w3.org/TR/2001/REC-SVG-20010904/DTD/svg10.dtd">
<svg version="1.0" xmlns="http://www.w3.org/2000/svg"
 width="565.000000pt" height="565.000000pt" viewBox="0 0 565.000000 565.000000"
 preserveAspectRatio="xMidYMid meet">
<metadata>
Created by potrace 1.11, written by Peter Selinger 2001-2013
</metadata>
<g transform="translate(0.000000,565.000000) scale(0.100000,-0.100000)"
fill="#000000" stroke="none">
<path d="M1710 5402 c-220 -42 -230 -46 -313 -132 -72 -73 -132 -162 -155
-227 -6 -18 -24 -52 -40 -75 -16 -24 -39 -69 -51 -101 -13 -31 -29 -61 -36
-65 -23 -13 -55 -77 -65 -133 -6 -30 -26 -91 -45 -136 -19 -45 -35 -89 -35
-97 0 -22 -2 -21 -45 19 l-38 34 -18 -21 c-10 -11 -16 -25 -12 -31 3 -5 1 -7
-4 -4 -15 10 -24 -18 -16 -53 5 -28 -1 -35 -29 -31 -4 0 -4 -7 -1 -16 5 -12 3
-14 -8 -7 -38 24 -85 7 -94 -35 -7 -34 -18 -44 -60 -58 -33 -11 -55 -44 -55
-85 0 -16 -9 -37 -21 -49 -22 -22 -20 -58 5 -89 6 -8 11 -27 10 -42 0 -16 3
-28 7 -28 5 0 9 -6 9 -13 0 -7 9 -18 19 -24 18 -12 18 -32 0 -88 -7 -21 37
-133 61 -155 9 -8 25 -20 36 -26 10 -6 19 -15 19 -20 1 -29 55 -71 75 -59 6 3
10 -2 10 -12 1 -17 60 -63 81 -63 5 0 9 -7 9 -16 0 -10 -6 -14 -15 -11 -20 8
-28 -8 -11 -22 12 -10 12 -16 -2 -42 -16 -29 -16 -31 5 -48 16 -13 33 -17 57
-14 31 4 33 2 29 -19 -3 -18 2 -27 21 -38 15 -7 25 -18 23 -24 -6 -18 22 -76
88 -181 34 -55 83 -134 108 -175 49 -80 109 -148 168 -192 107 -80 331 -108
474 -59 91 31 215 93 279 140 28 20 65 43 83 50 18 7 53 34 78 59 l46 47 -6
-45 c-8 -55 -22 -110 -33 -128 -7 -10 -15 -10 -38 -2 -23 9 -31 8 -40 -4 -6
-9 -22 -16 -36 -16 -28 0 -55 -34 -159 -200 -36 -58 -80 -115 -97 -126 -18
-12 -53 -48 -79 -80 -26 -33 -86 -105 -134 -160 -157 -183 -278 -381 -332
-541 -13 -40 -28 -78 -34 -85 -13 -16 -30 -88 -38 -153 -7 -70 -11 -88 -41
-190 -14 -49 -29 -115 -34 -145 -5 -30 -22 -92 -38 -136 -24 -69 -28 -90 -22
-135 4 -30 4 -78 0 -108 -5 -38 -1 -82 11 -142 19 -96 19 -96 51 -132 12 -13
40 -59 62 -103 36 -67 48 -81 89 -102 38 -20 50 -22 62 -12 8 7 40 14 71 16
31 2 72 8 92 14 28 7 41 6 60 -6 13 -9 29 -13 37 -11 7 3 29 2 50 -3 23 -5 48
-5 64 1 14 6 51 13 81 15 61 6 110 30 110 54 0 24 29 60 44 54 28 -11 60 67
57 136 -1 19 -3 47 -3 61 -1 15 8 40 19 55 11 16 29 56 41 89 11 33 46 116 77
185 32 69 75 172 97 230 22 58 48 119 58 135 10 17 26 50 36 75 10 25 32 70
50 100 50 88 54 112 58 346 3 185 7 233 26 309 13 55 21 113 19 150 -6 136 -3
273 5 320 9 48 10 77 6 241 -2 77 9 109 39 119 11 3 23 15 26 26 4 12 33 50
65 85 83 91 140 174 195 284 35 69 67 115 116 166 93 97 92 144 -4 114 -76
-24 -115 -49 -153 -97 -21 -27 -50 -61 -66 -76 -16 -16 -26 -32 -23 -37 7 -11
-19 -65 -44 -95 -10 -11 -26 -39 -37 -62 -10 -24 -22 -43 -26 -43 -5 0 -11 0
-15 0 -7 0 -9 16 -14 85 -1 17 10 66 24 110 14 44 26 87 26 95 0 8 2 31 3 50
1 19 -4 69 -12 110 -8 41 -15 115 -15 164 l0 90 -65 53 -65 54 -65 -5 c-84 -6
-182 -25 -194 -37 -6 -5 -18 -9 -28 -9 -10 0 -36 -19 -58 -42 -35 -37 -40 -49
-40 -88 0 -56 38 -121 99 -169 52 -41 88 -102 96 -163 5 -38 2 -58 -18 -100
-34 -75 -110 -173 -156 -204 -22 -14 -80 -64 -128 -111 -89 -86 -184 -143
-265 -158 -18 -3 -40 -7 -48 -9 -101 -19 -110 -18 -197 10 -89 30 -116 54
-138 124 -9 29 -43 80 -65 97 -10 8 -11 12 -3 13 7 0 10 7 7 15 -4 9 0 15 10
15 8 0 24 10 36 22 15 17 17 24 8 31 -10 7 -10 10 1 14 8 3 30 21 50 39 l36
32 -27 7 c-24 6 -26 9 -13 22 20 19 20 64 1 57 -10 -4 -13 0 -10 13 3 10 -2
27 -10 38 -12 15 -15 16 -16 5 0 -8 -9 -21 -20 -28 -11 -7 -20 -19 -20 -27 0
-8 -6 -14 -12 -13 -7 2 -12 -3 -10 -9 1 -7 -2 -13 -8 -13 -5 0 -10 8 -11 18
-9 185 -19 230 -75 348 -28 59 -33 80 -31 135 2 60 4 64 25 65 13 1 32 10 42
20 36 37 24 158 -20 203 -24 23 -26 29 -15 45 15 20 13 42 -8 81 -12 23 -12
40 -1 104 15 92 49 230 69 274 8 17 26 70 40 116 14 47 32 95 40 108 8 12 27
60 41 105 24 76 32 89 90 146 36 34 70 62 77 62 7 0 48 14 92 31 97 37 162 41
297 18 120 -21 155 -33 189 -63 70 -61 115 -155 125 -261 12 -127 13 -127 89
-101 55 19 67 41 66 128 -2 149 -39 250 -133 353 -55 60 -116 90 -203 100 -33
4 -79 13 -101 21 -23 8 -55 11 -72 8 -22 -4 -41 0 -64 13 -51 30 -64 30 -198
5z m-437 -1792 c14 -33 17 -48 24 -95 6 -50 -13 -37 -22 15 -3 19 -10 53 -15
75 -10 41 -12 86 -3 50 3 -11 10 -31 16 -45z m1031 -1132 c-7 -29 -16 -75 -19
-103 -21 -211 -22 -204 10 -252 22 -31 26 -47 24 -98 -1 -33 -6 -76 -10 -95
-4 -19 -10 -64 -14 -100 -4 -36 -9 -74 -12 -85 -2 -11 -6 -76 -7 -145 -3 -124
-3 -126 -53 -249 -43 -107 -49 -129 -42 -164 7 -41 -3 -77 -21 -77 -6 0 -10 4
-10 9 0 13 -67 6 -85 -9 -24 -20 -19 13 5 35 11 10 20 23 20 30 0 7 -9 20 -20
30 -11 10 -20 26 -20 36 0 33 -40 50 -85 38 -22 -6 -43 -14 -48 -18 -15 -14
-44 -108 -41 -134 2 -19 -3 -28 -19 -34 -12 -4 -26 -6 -31 -5 -5 2 -21 -1 -37
-7 -20 -7 -29 -6 -32 4 -7 16 12 35 34 35 10 0 27 13 38 29 27 37 26 42 -1 33
-13 -4 -34 -7 -48 -7 -14 1 -31 -6 -38 -15 -11 -12 -12 -6 -7 40 3 30 2 77 -3
103 -8 41 -7 49 8 57 10 5 25 25 34 45 10 19 21 33 25 30 5 -2 9 12 9 33 0 20
3 45 7 55 4 9 4 29 1 43 -5 19 -4 24 6 18 9 -5 10 -4 3 4 -5 6 -21 13 -35 15
-14 2 -42 11 -62 21 -21 9 -41 16 -46 16 -5 0 -18 11 -30 25 -20 22 -40 30
-66 26 -33 -6 239 367 368 504 31 33 80 86 108 118 28 31 56 57 62 57 38 0
147 84 172 133 21 40 24 33 8 -25z m-808 -1152 c-8 -6 -16 -29 -19 -51 -2 -22
-20 -98 -40 -170 -34 -124 -53 -210 -63 -284 -2 -19 -7 -38 -10 -43 -3 -5 -8
-45 -10 -89 -4 -70 -1 -87 20 -132 l25 -52 -29 35 c-31 38 -41 72 -46 165 -3
67 16 176 41 229 9 18 18 53 20 77 1 24 17 79 34 122 17 43 31 84 30 90 -1 7
1 40 6 75 6 52 10 60 22 51 11 -10 12 -8 7 7 -5 18 -5 18 10 0 13 -16 13 -21
2 -30z m221 -61 c1 -58 -2 -107 -7 -110 -6 -4 -10 17 -10 52 0 32 -5 74 -10
93 -7 23 -7 36 0 38 5 2 10 10 10 18 0 8 3 14 8 14 4 0 8 -47 9 -105z m-172
38 c-21 -15 -30 -10 -22 11 4 10 13 13 23 9 15 -6 15 -7 -1 -20z m142 -87 c4
-49 2 -67 -6 -62 -6 4 -11 13 -11 19 0 7 -13 21 -29 32 -16 10 -29 24 -28 29
1 5 -10 16 -25 23 -16 8 -28 18 -28 24 0 12 26 12 51 -1 14 -8 19 -7 19 1 0 6
7 9 15 5 11 -4 15 2 16 22 l0 27 10 -25 c6 -14 13 -56 16 -94z m231 -160 c-22
-18 -22 -19 -1 -12 18 6 21 4 16 -14 -5 -19 -7 -19 -27 -6 -11 8 -20 19 -18
25 1 6 -7 11 -18 11 -24 0 -26 9 -3 25 12 9 23 9 45 1 l29 -11 -23 -19z m72
-39 c0 10 10 9 40 -3 22 -9 49 -14 60 -11 18 4 18 3 8 -16 -7 -12 -13 -35 -14
-52 -1 -16 -3 -33 -3 -37 -1 -4 -14 -21 -29 -38 -21 -23 -34 -29 -48 -23 -16
6 -17 4 -6 -9 10 -12 10 -18 -2 -28 -9 -6 -20 -9 -26 -5 -5 3 -13 -1 -16 -9
-14 -37 -88 -8 -115 46 -21 42 -21 42 42 52 30 5 39 14 63 58 20 38 24 53 15
58 -7 5 -9 16 -5 26 6 16 7 16 21 -2 8 -11 15 -14 15 -7z m18 -252 c-10 -23
-28 -34 -28 -18 0 7 31 43 36 43 2 0 -2 -11 -8 -25z m-587 -282 c13 -16 12
-17 -3 -4 -17 13 -22 21 -14 21 2 0 10 -8 17 -17z"/>
<path d="M4585 4953 c24 -6 65 -42 65 -58 0 -7 11 -17 25 -23 19 -9 25 -9 25
0 0 6 2 9 5 6 8 -8 -6 -38 -17 -38 -5 0 -7 4 -4 9 3 5 -1 12 -10 15 -15 6 -13
-4 10 -33 5 -7 11 -19 12 -27 1 -7 5 -31 9 -52 6 -35 4 -40 -17 -47 -13 -4
-36 -9 -51 -11 -45 -4 -67 -31 -67 -81 0 -55 13 -70 58 -65 l34 4 -21 -21
c-11 -11 -18 -27 -15 -36 4 -10 0 -15 -14 -15 -36 0 -51 11 -47 33 6 35 -59
98 -85 82 -6 -3 -10 -1 -10 4 0 6 -9 11 -19 11 -11 0 -28 11 -39 24 -15 20
-30 26 -71 29 -47 3 -52 1 -57 -20 -4 -13 -1 -30 6 -38 14 -17 35 -21 25 -5
-10 16 4 47 20 47 7 0 13 -5 12 -11 -1 -6 3 -10 9 -9 18 3 16 -64 -2 -71 -9
-3 -14 -12 -11 -20 4 -11 -2 -12 -30 -6 -41 10 -93 -5 -93 -27 0 -12 -2 -12
-16 1 -8 9 -20 14 -25 11 -5 -4 -9 -2 -9 4 0 14 -29 29 -71 37 -49 9 -59 9
-106 0 -41 -7 -66 -22 -40 -23 59 -3 162 -46 205 -85 12 -12 22 -31 22 -42 0
-27 7 -36 53 -71 34 -25 67 -70 67 -91 0 -4 -12 6 -27 22 -23 25 -27 27 -32
10 -6 -17 -8 -17 -31 2 -23 19 -27 19 -42 5 -12 -11 -18 -12 -18 -4 0 7 -10
22 -22 35 -13 12 -31 39 -40 59 -13 28 -24 37 -42 37 -15 0 -30 -8 -36 -19 -9
-18 -7 -19 25 -14 32 5 35 3 36 -18 1 -13 0 -28 -1 -34 -1 -5 -3 -18 -5 -28
-20 -98 -38 -143 -67 -167 -18 -15 -37 -41 -43 -59 l-10 -31 -30 28 c-17 16
-38 43 -48 61 -13 26 -20 31 -30 22 -10 -8 -13 -6 -13 9 1 10 -3 19 -7 19 -4
0 -16 10 -26 23 -10 12 -29 23 -42 24 -13 1 -31 4 -39 7 -8 3 -33 8 -55 12
-87 12 -97 11 -114 -15 -13 -20 -13 -23 -1 -14 17 13 125 12 137 -1 4 -4 1 -5
-7 -1 -8 4 -4 -1 10 -12 14 -11 28 -19 32 -19 4 1 15 -8 23 -20 9 -13 22 -23
28 -22 9 0 8 2 -1 6 -6 2 -9 10 -6 15 5 7 2 8 -7 3 -8 -5 -11 -4 -6 1 5 5 12
9 15 9 4 0 14 4 22 10 13 7 13 6 2 -7 -7 -9 -12 -20 -11 -24 5 -30 -4 -43 -33
-49 -18 -4 -39 -12 -45 -17 -7 -6 -13 -7 -13 -3 0 11 -40 -26 -51 -46 -10 -19
5 -21 30 -5 8 5 26 10 40 12 14 1 30 2 34 3 5 1 5 7 1 14 -4 6 1 5 12 -4 10
-9 33 -21 51 -28 32 -13 41 -29 50 -95 l5 -39 -33 25 c-30 22 -89 50 -103 50
-3 0 -27 5 -53 12 -27 7 -57 10 -68 5 -11 -4 -30 -5 -42 -2 -13 3 -23 0 -23
-5 0 -6 -9 -9 -21 -7 -34 7 -122 -58 -182 -134 -22 -28 -87 -129 -88 -136 0
-2 -7 -21 -15 -40 -8 -20 -12 -40 -9 -45 3 -5 1 -11 -5 -15 -5 -3 -10 -14 -10
-23 0 -11 3 -13 8 -6 13 19 94 74 103 69 4 -3 10 -1 14 4 4 7 15 7 33 0 15 -6
28 -10 30 -10 1 1 19 -6 40 -15 60 -26 102 -27 171 -5 l65 21 35 -23 c26 -17
43 -21 61 -16 61 17 58 6 -4 -16 -81 -29 -92 -36 -177 -108 -35 -29 -93 -73
-129 -97 -36 -24 -75 -52 -86 -63 -12 -10 -45 -31 -73 -45 -122 -65 -216 -176
-256 -303 -14 -44 -41 -165 -60 -269 -20 -104 -42 -207 -50 -230 -20 -56 -43
-181 -38 -205 10 -44 5 -133 -8 -156 -8 -13 -14 -53 -15 -89 -1 -36 -2 -103
-3 -150 -1 -47 1 -97 4 -113 19 -93 59 -213 94 -282 22 -44 41 -85 41 -91 0
-29 121 -132 269 -229 239 -157 222 -152 498 -142 192 8 238 24 433 154 41 27
112 69 158 94 103 54 212 159 290 279 30 47 61 90 67 95 7 6 30 44 52 86 22
42 72 130 112 196 l72 121 -22 39 c-11 21 -22 39 -23 40 -1 2 -13 -7 -25 -18
-15 -15 -25 -18 -30 -11 -4 7 -29 -9 -65 -43 -32 -30 -65 -55 -72 -55 -8 0
-14 -4 -14 -10 0 -5 -7 -10 -15 -10 -9 0 -36 -33 -62 -72 -25 -40 -62 -93 -82
-118 -20 -24 -62 -80 -94 -125 -61 -85 -166 -177 -250 -219 -26 -13 -62 -39
-81 -58 -18 -18 -52 -40 -76 -48 -23 -8 -59 -27 -79 -43 -20 -16 -54 -38 -76
-48 -36 -16 -47 -16 -101 -5 -62 13 -73 13 -159 1 -47 -6 -54 -4 -112 33 -34
23 -78 45 -98 51 -107 29 -240 195 -269 336 -12 58 -14 71 -20 175 -6 95 -5
112 17 178 21 61 23 80 15 117 -7 31 -6 62 2 98 6 28 14 66 16 82 3 17 7 41
10 55 3 14 8 39 11 55 2 17 11 49 19 73 8 23 14 48 14 54 0 6 25 55 55 109 29
54 63 124 73 156 11 32 31 82 46 111 14 28 33 82 40 119 16 73 18 76 179 216
92 80 163 127 232 153 28 10 71 31 96 47 50 30 104 36 215 22 117 -15 148 -34
201 -123 24 -41 25 -45 13 -110 -6 -37 -20 -88 -30 -113 -11 -25 -22 -65 -26
-87 -6 -37 -4 -43 16 -50 21 -8 92 10 131 33 88 52 112 343 40 483 -23 44 -76
97 -111 111 -16 6 -19 10 -8 10 9 1 46 -23 81 -53 63 -53 64 -55 86 -142 12
-49 24 -90 26 -92 8 -8 54 27 77 58 12 17 27 30 33 30 20 0 55 -45 66 -83 11
-42 1 -70 -38 -103 -14 -12 -21 -24 -16 -27 13 -8 21 -1 83 73 30 36 61 69 68
73 11 7 10 12 -4 28 -11 13 -18 40 -20 85 -3 71 -26 123 -61 138 -19 9 -22 19
-24 74 0 9 -5 32 -11 50 -8 26 -7 37 5 50 16 17 17 21 17 47 0 9 10 15 28 16
l27 1 -25 7 c-22 6 -23 8 -7 14 10 4 29 7 42 7 13 0 25 6 28 13 3 9 11 9 35 1
26 -10 31 -9 35 5 2 12 9 6 25 -19 24 -39 28 -70 10 -88 -6 -6 -9 -14 -6 -18
11 -10 43 -12 55 -2 7 5 16 8 20 5 23 -13 53 14 64 58 6 25 15 48 20 51 15 9
10 46 -8 66 -9 10 -11 18 -5 18 7 0 9 17 7 45 -3 33 -11 52 -33 74 -17 16 -35
30 -41 32 -6 2 -13 15 -16 29 -5 29 -43 60 -62 53 -8 -3 -13 -23 -14 -52 -1
-92 -13 -127 -57 -167 -36 -33 -72 -45 -72 -23 0 6 -7 8 -16 5 -9 -4 4 14 30
39 59 58 62 77 21 130 -20 27 -21 34 -10 55 19 38 27 80 15 80 -5 0 -10 18
-10 40 0 37 -2 39 -34 45 -33 7 -34 8 -25 37 4 17 7 34 4 37 -2 4 0 13 4 20 6
8 15 2 34 -22 17 -23 39 -38 66 -45 39 -9 42 -8 70 25 23 27 28 42 25 68 -3
26 0 35 14 39 11 4 25 18 33 32 12 24 12 28 -6 43 -11 9 -20 25 -20 35 0 26
-47 59 -82 58 -22 0 -33 7 -46 30 -16 27 -21 29 -57 24 -22 -3 -40 -2 -41 2 0
4 -2 15 -5 25 -2 9 -6 25 -8 35 -3 9 -5 21 -5 25 -1 5 -6 5 -13 1 -7 -4 -8 -3
-4 5 9 14 -30 71 -49 71 -7 0 -15 3 -17 8 -7 17 -69 52 -90 51 -20 -1 -21 -2
-3 -6z m119 -421 c3 -5 1 -22 -4 -38 -8 -28 -8 -28 -9 -3 -1 14 -6 30 -13 37
-9 9 -8 12 4 12 9 0 19 -4 22 -8z m-984 -346 c0 -12 -5 -7 -19 24 -11 24 -11
24 3 6 9 -11 16 -24 16 -30z m77 -53 c-4 -3 -1 -13 6 -22 11 -14 10 -14 -5 -2
-16 12 -16 31 -1 31 4 0 3 -3 0 -7z m68 -512 c-3 -6 -14 -11 -23 -11 -13 0
-13 2 4 14 21 15 30 14 19 -3z"/>
<path d="M4826 3991 c-11 -13 -14 -21 -7 -26 6 -3 11 -1 11 4 0 6 7 11 15 11
16 0 20 16 6 24 -4 3 -16 -3 -25 -13z"/>
</g>
</svg>
